<svg id="Layer_1" data-name="Layer 1" xmlns="http://www.w3.org/2000/svg" viewBox="0 0 469.33 469.33"><defs><style>.cls-1{fill:#fff;}</style></defs><path class="cls-1" d="M468.52,6.59A10.65,10.65,0,0,0,458.67,0C44.69,0,0,171.56,0,245.33,0,271.87,5.89,296.66,17.51,319a10.69,10.69,0,0,0,9.22,5.74,11.3,11.3,0,0,0,9.47-5.34C64.15,271.1,143.3,151.89,274,88.56a10.66,10.66,0,1,1,9.34,19.17c-9.86,4.78-19.33,10-28.61,15.38-3.54,2.07-7,4.27-10.45,6.43-5.23,3.24-10.39,6.54-15.42,10s-10,6.83-14.83,10.37c-1.52,1.11-3,2.24-4.46,3.37C79.49,250.18,0,404.82,0,458.67a10.67,10.67,0,0,0,21.33,0c0-17.2,11.72-52.06,33.88-93.64,32.17,26.31,75.46,40.3,126.12,40.3C318.32,405.33,347,275,362.41,205,383.15,110.7,428.78,55.64,466.2,18.2A10.61,10.61,0,0,0,468.52,6.59Z"/></svg>